<svg viewBox="0 0 810 811" xmlns="http://www.w3.org/2000/svg" fill-rule="evenodd" clip-rule="evenodd" stroke-linejoin="round" stroke-miterlimit="1.414"><clipPath id="a"><path d="M405 811a411.673 411.673 0 01-41.408-2.091 405.672 405.672 0 01-40.213-6.137 404.107 404.107 0 01-38.812-9.979 403.6 403.6 0 01-37.209-13.619C150.295 738.048 72.955 660.71 31.827 563.648a404.178 404.178 0 01-13.621-37.209 404.168 404.168 0 01-9.979-38.813 405.652 405.652 0 01-6.137-40.212A411.202 411.202 0 010 406v-1c0-13.83.699-27.651 2.092-41.41a405.627 405.627 0 016.137-40.213 403.674 403.674 0 019.979-38.814 403.826 403.826 0 0113.621-37.21C72.955 150.289 150.296 72.949 247.36 31.824a403.736 403.736 0 0137.209-13.619 403.601 403.601 0 0138.813-9.98 406.261 406.261 0 0140.213-6.137 411.046 411.046 0 0182.816 0 406.261 406.261 0 0140.213 6.137 403.677 403.677 0 0138.813 9.98 403.831 403.831 0 0137.211 13.619c97.062 41.128 174.401 118.467 215.529 215.529a403.826 403.826 0 0113.621 37.21 404.041 404.041 0 019.98 38.814 407.828 407.828 0 016.137 40.213A412.297 412.297 0 01810 405v1c-.002 13.829-.7 27.65-2.092 41.409a406.646 406.646 0 01-6.137 40.212 404.241 404.241 0 01-9.98 38.813 404.285 404.285 0 01-13.621 37.209c-41.127 97.062-118.466 174.4-215.529 215.526a403.988 403.988 0 01-37.211 13.619 403.661 403.661 0 01-38.812 9.979 405.966 405.966 0 01-40.213 6.137A411.619 411.619 0 01405 811zm0-707.984c-168.178 0-305 136.822-305 305v.75c0 168.178 136.822 305 305 305s305-136.822 305-305v-.75c0-168.181-136.822-305.003-305-305.003v.003z"/></clipPath><g clip-path="url(#a)"><path d="M810 405C810 181.474 628.526 0 405 0S0 181.474 0 405v1c0 223.526 181.474 405 405 405s405-181.474 405-405v-1z" fill="url(#_Linear2)"/></g><defs><linearGradient id="_Linear2" x1="0" y1="0" x2="1" y2="0" gradientUnits="userSpaceOnUse" gradientTransform="matrix(0 811 -811 0 405 0)"><stop offset="0" stop-color="#50def6"/><stop offset="1" stop-color="#50def6" stop-opacity="0"/></linearGradient></defs></svg>