<?xml version="1.0" encoding="UTF-8" standalone="no"?><!DOCTYPE svg PUBLIC "-//W3C//DTD SVG 1.1//EN" "http://www.w3.org/Graphics/SVG/1.1/DTD/svg11.dtd"><svg width="100%" height="100%" viewBox="0 0 810 811" version="1.1" xmlns="http://www.w3.org/2000/svg" xmlns:xlink="http://www.w3.org/1999/xlink" xml:space="preserve" xmlns:serif="http://www.serif.com/" style="fill-rule:evenodd;clip-rule:evenodd;stroke-linejoin:round;stroke-miterlimit:1.41421;"><clipPath id="_clip1"><path id="Rectangle_119" d="M405,811c-13.829,-0.001 -27.649,-0.699 -41.408,-2.091c-13.498,-1.372 -26.92,-3.42 -40.213,-6.137c-13.045,-2.669 -26.1,-6.027 -38.812,-9.979c-12.568,-3.909 -25.088,-8.492 -37.209,-13.619c-97.063,-41.126 -174.403,-118.464 -215.531,-215.526c-5.129,-12.125 -9.711,-24.645 -13.621,-37.209c-3.955,-12.721 -7.312,-25.779 -9.979,-38.813c-2.717,-13.293 -4.765,-26.714 -6.137,-40.212c-1.393,-13.761 -2.09,-27.583 -2.09,-41.414l0,-1c0,-13.83 0.699,-27.651 2.092,-41.41c1.372,-13.499 3.42,-26.92 6.137,-40.213c2.666,-13.034 6.023,-26.092 9.979,-38.814c3.908,-12.564 8.492,-25.083 13.621,-37.21c41.126,-97.064 118.467,-174.404 215.531,-215.529c12.123,-5.128 24.643,-9.71 37.209,-13.619c12.707,-3.953 25.766,-7.31 38.813,-9.98c13.293,-2.716 26.715,-4.764 40.213,-6.137c27.535,-2.788 55.281,-2.788 82.816,0c13.498,1.373 26.92,3.421 40.213,6.137c13.047,2.67 26.105,6.027 38.813,9.98c12.564,3.908 25.084,8.49 37.211,13.619c97.062,41.128 174.401,118.467 215.529,215.529c5.129,12.127 9.713,24.646 13.621,37.21c3.955,12.72 7.313,25.779 9.98,38.814c2.7,13.217 4.768,26.747 6.137,40.213c1.389,13.76 2.085,27.58 2.085,41.41l0,1c-0.002,13.829 -0.7,27.65 -2.092,41.409c-1.369,13.467 -3.434,27 -6.137,40.212c-2.668,13.035 -6.025,26.094 -9.98,38.813c-3.91,12.564 -8.492,25.083 -13.621,37.209c-41.127,97.062 -118.466,174.4 -215.529,215.526c-12.125,5.128 -24.645,9.71 -37.211,13.619c-12.709,3.953 -25.768,7.31 -38.812,9.979c-13.293,2.716 -26.715,4.765 -40.213,6.137c-13.758,1.394 -27.577,2.093 -41.405,2.096Zm0,-707.984c-168.178,0 -305,136.822 -305,305l0,0.75c0,168.178 136.822,305 305,305c168.178,0 305,-136.822 305,-305l0,-0.75c0,-168.181 -136.822,-305.003 -305,-305.003l0,0.003Z"/></clipPath><g clip-path="url(#_clip1)"><path d="M810,405c0,-223.526 -181.474,-405 -405,-405c-223.526,0 -405,181.474 -405,405l0,1c0,223.526 181.474,405 405,405c223.526,0 405,-181.474 405,-405l0,-1Z" style="fill:url(#_Linear2);"/></g><defs><linearGradient id="_Linear2" x1="0" y1="0" x2="1" y2="0" gradientUnits="userSpaceOnUse" gradientTransform="matrix(4.96594e-14,811,-811,4.96594e-14,405,0)"><stop offset="0" style="stop-color:#50def6;stop-opacity:1"/><stop offset="1" style="stop-color:#50def6;stop-opacity:0"/></linearGradient></defs></svg>